<?xml version="1.0" standalone="no"?><!DOCTYPE svg PUBLIC "-//W3C//DTD SVG 1.1//EN" "http://www.w3.org/Graphics/SVG/1.1/DTD/svg11.dtd"><svg class="icon" width="200px" height="171.52px" viewBox="0 0 1194 1024" version="1.1" xmlns="http://www.w3.org/2000/svg"><path d="M1193.351198 340.954685a28.412867 28.412867 0 0 0-28.412866-28.412867h-56.825734a26.708095 26.708095 0 0 0-13.354047 3.977801l-178.432803-277.02545A85.2386 85.2386 0 0 0 844.157067 0.000284H348.068414a85.2386 85.2386 0 0 0-72.168681 39.493885L99.45583 315.667233a26.708095 26.708095 0 0 0-12.217532-3.125415H28.423664a28.412867 28.412867 0 0 0-28.412867 28.412867 28.412867 28.412867 0 0 0 28.412867 28.412866h36.652598L4.556856 464.266526a28.412867 28.412867 0 0 0-4.546059 15.342948v426.193001a116.208625 116.208625 0 0 0 78.987769 111.662566 113.651467 113.651467 0 0 0 136.950018-56.825734A113.651467 113.651467 0 0 0 229.018502 909.212019H966.048265v19.03662a28.412867 28.412867 0 0 0 0 6.819088 118.197525 118.197525 0 0 0 9.376246 25.57158A113.651467 113.651467 0 0 0 1078.279088 1022.863485a121.322941 121.322941 0 0 0 35.516084-5.398444 116.208625 116.208625 0 0 0 79.556026-110.526052V477.620573a28.412867 28.412867 0 0 0-4.546058-15.342948L1128.853991 369.367551h38.073241a28.412867 28.412867 0 0 0 26.423966-28.412866z m-56.825733 565.984304a59.098763 59.098763 0 0 1-39.209756 56.825734 58.246377 58.246377 0 0 1-70.46391-28.412867 61.087663 61.087663 0 0 1-3.977801-10.228632V909.212019a60.235277 60.235277 0 0 0-16.195334-41.482786A56.825733 56.825733 0 0 0 966.048265 852.386285H229.018502a56.825733 56.825733 0 0 0-40.630399 16.763591A56.825733 56.825733 0 0 0 172.192769 909.212019a56.825733 56.825733 0 0 1-6.534959 26.423966 56.825733 56.825733 0 0 1-69.611524 28.412866 59.098763 59.098763 0 0 1-38.925627-56.825733V487.849205l266.796818-417.66914a28.412867 28.412867 0 0 1 24.150937-13.354047h496.088653a28.412867 28.412867 0 0 1 24.435065 13.354047L1136.525465 486.144433z"  /><path d="M684.760884 375.050125L647.2559 426.193285l-85.2386-187.809049a14.206433 14.206433 0 0 0-24.719194-1.988901L449.218219 369.367551H213.107297a14.206433 14.206433 0 0 0 0 28.412867h243.782396a14.206433 14.206433 0 0 0 11.933404-6.534959l78.135384-119.049912 85.2386 186.104277a14.206433 14.206433 0 0 0 11.365147 8.239731h1.704772a14.206433 14.206433 0 0 0 11.365146-5.682573L703.229248 397.780418h277.02545a14.206433 14.206433 0 0 0 0-28.412867h-284.128667a14.206433 14.206433 0 0 0-11.365147 5.682574zM284.139464 539.844751H142.07513a56.825733 56.825733 0 0 0-56.825733 56.825734v56.825733a56.825733 56.825733 0 0 0 56.825733 56.825734h142.064334a56.825733 56.825733 0 0 0 56.825733-56.825734v-56.825733a56.825733 56.825733 0 0 0-56.825733-56.825734z m28.412867 113.651467a28.412867 28.412867 0 0 1-28.412867 28.412867H142.07513a28.412867 28.412867 0 0 1-28.412866-28.412867v-56.825733a28.412867 28.412867 0 0 1 28.412866-28.412867h142.064334a28.412867 28.412867 0 0 1 28.412867 28.412867zM852.396798 596.670485v56.825733a56.825733 56.825733 0 0 0 56.825733 56.825734h142.064334a56.825733 56.825733 0 0 0 56.825733-56.825734v-56.825733a56.825733 56.825733 0 0 0-56.825733-56.825734h-142.064334a56.825733 56.825733 0 0 0-56.825733 56.825734z m227.302933 0v56.825733a28.412867 28.412867 0 0 1-28.412866 28.412867h-142.064334a28.412867 28.412867 0 0 1-28.412866-28.412867v-56.825733a28.412867 28.412867 0 0 1 28.412866-28.412867h142.064334a28.412867 28.412867 0 0 1 28.412866 28.412867zM752.951764 568.257618h-312.541533a14.206433 14.206433 0 0 0 0 28.412867h312.541533a14.206433 14.206433 0 0 0 0-28.412867zM752.951764 653.496218h-312.541533a14.206433 14.206433 0 0 0 0 28.412867h312.541533a14.206433 14.206433 0 0 0 0-28.412867z"  /></svg>